<?xml version="1.0" standalone="no"?>
<!DOCTYPE svg PUBLIC "-//W3C//DTD SVG 20010904//EN"
 "http://www.w3.org/TR/2001/REC-SVG-20010904/DTD/svg10.dtd">
<svg version="1.0" xmlns="http://www.w3.org/2000/svg"
 width="450.000000pt" height="450.000000pt" viewBox="0 0 450.000000 450.000000"
 preserveAspectRatio="xMidYMid meet">
<metadata>
Created by potrace 1.16, written by Peter Selinger 2001-2019
</metadata>
<g transform="translate(0.000000,450.000000) scale(0.100000,-0.100000)"
fill="#000000" stroke="none">
<path d="M1870 2619 c-41 -25 -50 -36 -50 -66 0 -20 5 -23 39 -23 33 0 40 -4
43 -22 3 -20 10 -23 51 -26 l47 -3 0 35 c0 34 2 36 35 36 40 0 44 13 15 48
-37 45 -124 55 -180 21z"/>
<path d="M2148 2028 c-26 -9 -28 -14 -28 -60 l0 -50 94 4 c89 3 97 5 125 32
17 17 31 35 31 40 0 6 -16 19 -36 29 -39 19 -141 22 -186 5z"/>
<path d="M2120 1451 c0 -5 22 -47 50 -93 45 -74 50 -89 50 -140 l0 -58 -50 0
-50 0 0 -50 0 -50 60 0 c33 0 60 4 60 10 0 19 60 40 115 40 47 0 60 -4 75 -22
16 -21 29 -23 123 -26 l104 -4 13 -39 13 -39 182 0 c164 0 185 2 206 19 21 17
22 21 9 37 -21 25 -142 79 -243 108 -77 23 -93 24 -144 15 -33 -6 -119 -9
-198 -7 -210 7 -232 22 -234 165 -1 37 -6 45 -48 81 -56 46 -93 67 -93 53z"/>
</g>
</svg>
